<svg width="16" height="16" xmlns="http://www.w3.org/2000/svg" class="bi bi-fire" fill="currentColor">

 <g>
  <title>Layer 1</title>
  <path fill="#ff5656" id="svg_1" d="m8,16c3.314,0 6,-2 6,-5.5c0,-1.5 -0.5,-4 -2.5,-6c0.25,1.5 -1.25,2 -1.25,2c0.75,-2.5 -1.25,-6 -4.25,-6.5c0.357,2 0.5,4 -2,6c-1.25,1 -2,2.729 -2,4.5c0,3.5 2.686,5.5 6,5.5zm0,-1c-1.657,0 -3,-1 -3,-2.75c0,-0.75 0.25,-2 1.25,-3c-0.125,0.75 0.75,1.25 0.75,1.25c-0.375,-1.25 0.5,-3.25 2,-3.5c-0.179,1 -0.25,2 1,3c0.625,0.5 1,1.364 1,2.25c0,1.75 -1.343,2.75 -3,2.75z"/>
 </g>
</svg>